<svg xmlns="http://www.w3.org/2000/svg" xmlns:xlink="http://www.w3.org/1999/xlink" version="1.1" x="0" y="0" width="227.33" height="218.72" viewBox="0 0 568.33 546.8">
  <defs>
    <linearGradient id="Gradient_1" gradientUnits="userSpaceOnUse" x1="520.31" y1="876.87" x2="1066.96" y2="876.87" gradientTransform="matrix(0.33, 0.944, -0.944, 0.33, 1078.626, -654.167)">
      <stop offset="0" stop-color="#C2D831"/>
      <stop offset="0.5" stop-color="#C0D731"/>
      <stop offset="0.5" stop-color="#B2D235"/>
      <stop offset="0.5" stop-color="#A1CD39"/>
      <stop offset="0.5" stop-color="#96C93D"/>
      <stop offset="0.5" stop-color="#8FC73E"/>
      <stop offset="0.5" stop-color="#8DC63F"/>
    </linearGradient>
    <linearGradient id="Gradient_2" gradientUnits="userSpaceOnUse" x1="425.64" y1="85.9" x2="1278.45" y2="85.9" gradientTransform="matrix(0.5, 0, 0, -0.5, 86.442, 428.906)">
      <stop offset="0" stop-color="#27AAE1"/>
      <stop offset="1" stop-color="#1C75BC"/>
    </linearGradient>
  </defs>
  <g id="Layer_1" transform="translate(-228.745, -110.783)">
    <path d="M602.52 642.23C460 692 304.14 616.81 254.37 474.29 204.6 331.78 279.79 175.9 422.31 126.14 564.83 76.37 720.7 151.56 770.46 294.07 820.23 436.59 745.04 592.47 602.52 642.23z" fill="url(#Gradient_1)"/>
    <path d="M512.42 147.42C383.78 147.42 279.49 253.1 279.49 383.49 279.49 513.86 383.77 619.55 512.42 619.55 641.06 619.55 745.36 513.86 745.36 383.49 745.36 253.1 641.06 147.42 512.42 147.42z" fill="#FFFFFF" id="white_circle"/>
    <path d="M512.47 173.37C394.71 173.37 299.26 268.56 299.26 385.95 299.26 503.35 394.71 598.54 512.47 598.54 630.21 598.54 725.67 503.35 725.67 385.95 725.67 268.56 630.21 173.37 512.47 173.37zM374.66 482.36C463.65 482.36 557.58 482.36 646.57 482.36 557.58 482.36 463.65 482.36 374.66 482.36z" fill="url(#Gradient_2)" id="blue_circle"/>
    <path d="M480.86 257.23C479.85 257.21 478.87 257.17 477.84 257.17L377.6 257.17C365.12 257.17 352.9 262.09 340.08 272.34 328.56 284.78 321.68 300.39 321.68 314.11 321.68 315.82 323.48 316 328.3 316.49 329.39 316.59 330.84 316.74 331.84 316.89L331.66 317.29 357.36 320.4 357.43 318.91C357.53 316.77 357.54 314.79 357.54 312.99 357.57 306.49 357.72 303.27 360.74 301.19L361.07 300.87C363.84 297.14 368.33 296.96 376.47 296.62L377.77 296.56 347.88 512.92 390.55 512.92 396.31 466.28C406.41 467.01 420.82 467.39 439.17 467.39 484.68 467.39 541.37 440.22 551.38 363.65 552.26 356.96 552.71 350.18 552.71 343.53 552.71 327.13 551.89 310.87 547.22 296.96L589.78 297.05 568.56 511.4 568.41 512.92 612.02 512.92 634.49 297.07 697.48 297.55 698.55 256.93 480.86 257.23zM513.89 359.96C505.68 419.4 472.91 427.6 438.73 427.6 434.83 427.6 423.57 426.78 411.65 425.91 408.23 425.66 404.76 425.4 401.41 425.16L416.92 299.87 466.75 298.37C499.95 299.93 514.76 314.3 514.76 344.96 514.76 348.69 514.67 354.3 513.89 359.96z" fill="#FFFFFF" id="Letters_PT"/>
    <path d="M713.05 322.12C701.5 327.78 692.76 321.91 693.64 309.08L699.05 229.45C699.92 216.61 709.37 211.98 720.05 219.15L786.31 263.65C796.99 270.83 796.5 281.68 784.95 287.35L713.05 322.12z" fill="#8DC63F"/>
    <path d="M703.55 327.22C700.42 327.22 697.54 326.38 695.05 324.71 690.02 321.33 687.54 315.15 688.07 307.32L693.49 227.69C694.02 219.85 697.31 214.07 702.75 211.4 708.19 208.73 714.79 209.67 721.31 214.05L787.57 258.55C794.09 262.93 797.45 268.67 797.04 274.72 796.63 280.77 792.52 286.01 785.47 289.46L771.31 296.4 768.42 288.43 781.61 281.59C785.67 279.6 788.11 276.88 788.29 274.13 788.48 271.38 786.43 268.35 782.68 265.83L716.42 221.33C712.66 218.81 709.1 218.06 706.61 219.27 704.14 220.49 702.54 223.77 702.24 228.28L696.82 307.91C696.52 312.42 697.66 315.89 699.94 317.43 702.24 318.97 705.88 318.7 709.94 316.72L729.84 306.97C729.93 306.92 732.15 305.81 732.51 305.62L735.06 314.21C734.62 314.45 733.61 314.88 733.61 314.88L713.8 324.59C710.23 326.34 706.76 327.22 703.55 327.22z" fill="#FFFFFF"/>
    <path d="M312.56 446.54C323.94 440.54 332.85 446.16 332.35 459.01L329.25 538.77C328.75 551.62 319.44 556.53 308.56 549.67L241.03 507.1C230.15 500.24 230.54 486.21 241.92 480.21L312.56 446.54z" fill="#C2D831"/>
    <path d="M289.82 453.22L310.52 442.66C318.77 438.31 326.91 438.97 331.92 444.17 335.31 447.7 336.97 452.89 336.73 459.18L333.63 538.94C333.2 550.01 327.04 557.16 317.92 557.16 314.13 557.16 310.19 555.89 306.22 553.38L238.69 510.81C232.05 506.63 228.52 500.98 228.76 494.92 228.99 488.86 232.95 483.51 239.9 479.85L253.77 472.55 256.82 481.22 243.99 487.62C239.99 489.72 237.63 492.51 237.52 495.26 237.41 498.02 239.55 500.98 243.37 503.4L310.9 545.96C313.41 547.55 315.84 548.39 317.92 548.39 323.85 548.39 324.75 541.54 324.87 538.6L327.96 458.84C328.11 455.05 327.27 452 325.59 450.25 324.49 449.1 322.99 448.52 321.16 448.52 319.22 448.52 316.96 449.18 314.6 450.42L292.26 461.3 289.82 453.22z" fill="#FFFFFF"/>
  </g>
</svg>
